<svg width="1800" height="920" viewBox="0 0 1800 920" fill="none" xmlns="http://www.w3.org/2000/svg">
<g opacity="0.9">
<path d="M575.036 572.89L574.996 572.97L574.955 573.01L574.915 573.091L574.875 573.131L574.835 573.211L574.795 573.252L574.715 573.332L574.674 573.372L574.634 573.412L574.554 573.453L574.514 573.493L574.433 573.533L574.393 573.573L574.313 573.614L574.273 573.654L574.192 573.694H574.112L574.032 573.734H573.952L573.911 573.774H573.831H573.751H573.67H573.59H573.51H573.47L573.389 573.734H573.309L573.229 573.694H573.148L573.108 573.654H573.028L572.948 573.614L572.908 573.573L572.827 573.493H572.747L572.707 573.453L572.626 573.372L572.586 573.332L572.546 573.292L572.466 573.211L572.426 573.171V573.091L572.345 573.05V572.97L572.305 572.93L572.265 572.849L572.225 572.769V572.729L572.185 572.648V572.568V572.487L572.145 572.407V572.367V572.286V572.206V572.125V572.045L572.185 571.964V571.924V571.844L572.225 571.763V571.683L572.265 571.603L575.036 572.89Z" fill="#8B8B8B"/>
<path d="M1149.35 439.844C1149.17 439.844 1148.98 439.817 1148.79 439.763C1099.56 421.302 1048.2 413.621 996.117 416.959C995.314 416.999 994.591 416.355 994.511 415.511C994.47 414.706 995.113 413.983 995.916 413.902C1048.44 410.564 1100.2 418.326 1149.88 436.908C1150.64 437.189 1151.04 438.074 1150.76 438.838C1150.52 439.482 1149.96 439.844 1149.35 439.844Z" fill="#8B8B8B"/>
<path d="M1072.61 340.019L1072.7 340.059L1072.78 340.099L1072.82 340.14L1072.9 340.18L1072.94 340.22L1073.02 340.26L1073.06 340.301L1073.1 340.381L1073.18 340.421L1073.22 340.502L1073.26 340.542L1073.3 340.622L1073.34 340.663L1073.38 340.743L1073.42 340.783V340.864L1073.46 340.944L1073.5 340.984V341.065V341.145L1073.54 341.226V341.306V341.346V341.427V341.507V341.588V341.668L1073.5 341.748V341.789L1073.46 341.869L1073.42 341.95V342.03L1073.38 342.11L1073.34 342.151L1073.3 342.231L1073.26 342.271L1073.22 342.352L1073.18 342.392L1073.1 342.472L1073.06 342.513L1073.02 342.553L1072.98 342.593L1072.9 342.674L1072.86 342.714H1072.78L1072.7 342.794H1072.66L1072.57 342.834H1072.49L1072.41 342.875L1072.37 342.915H1072.29H1072.21H1072.17L1072.09 342.955H1072.01H1071.93L1071.85 342.915H1071.77H1071.69L1071.61 342.875H1071.57L1071.49 342.834L1071.41 342.794L1072.61 340.019Z" fill="#8B8B8B"/>
<path d="M896.568 465.624L894.681 467.515L894.32 467.877L892.191 465.705L892.553 465.343L894.4 463.493L896.568 465.624Z" fill="#8B8B8B"/>
<path d="M894.399 463.493L894.48 463.452L894.52 463.372L894.6 463.332L894.64 463.292L894.721 463.251L894.761 463.211L894.841 463.171H894.921L894.962 463.131H895.042L895.122 463.091L895.203 463.05H895.283H895.323H895.403H895.484H895.564H895.604H895.684H895.765L895.845 463.091H895.925L895.965 463.131L896.046 463.171H896.126L896.166 463.211L896.247 463.251L896.327 463.292L896.367 463.332L896.447 463.372L896.488 463.452L896.568 463.493L896.608 463.533L896.648 463.613L896.728 463.654L896.769 463.734V463.774L896.849 463.855V463.935L896.889 463.975L896.929 464.056V464.136L896.969 464.176V464.257V464.337L897.01 464.418V464.498V464.538V464.619V464.699L896.969 464.78V464.86V464.9L896.929 464.981V465.061L896.889 465.142L896.849 465.182V465.262L896.809 465.343L896.769 465.383L896.728 465.463L896.648 465.504L896.608 465.584L896.568 465.624L894.399 463.493Z" fill="#8B8B8B"/>
<path d="M360.6 587.609H360.52H360.44H360.359H360.279L360.199 587.569H360.159L360.078 587.529H359.998L359.918 587.489L359.877 587.449L359.797 587.408L359.717 587.368H359.677L359.596 587.288L359.556 587.247L359.516 587.207L359.436 587.167L359.396 587.087L359.355 587.046L359.315 586.966L359.275 586.926L359.235 586.845L359.195 586.805L359.155 586.725L359.114 586.684V586.604L359.074 586.523L359.034 586.443V586.363V586.282V586.242V586.162V586.081V586.001V585.92V585.84V585.759L359.074 585.679V585.639L359.114 585.558L359.155 585.478V585.438L359.195 585.357L359.235 585.317L359.275 585.236L359.315 585.196L359.355 585.116L359.396 585.076L359.476 584.995L359.516 584.955L359.556 584.915L359.637 584.875L359.677 584.834L359.757 584.794L359.837 584.754L359.877 584.714H359.958L360.038 584.673L360.078 584.633H360.159L360.239 584.593H360.319H360.4L360.44 584.553L360.6 587.609Z" fill="#8B8B8B"/>
<path d="M585.074 877.931C584.639 877.797 584.204 877.662 583.769 877.528C582.964 877.278 582.551 876.435 582.8 875.628C583.049 874.821 583.903 874.37 584.67 874.607C584.696 874.615 584.709 874.619 584.709 874.619C586.423 875.192 588.2 875.7 589.9 876.184C658.313 895.294 731.16 857.937 755.715 791.153C768.419 756.652 766.922 719.27 751.554 685.847C736.135 652.45 708.661 627.067 674.214 614.343C639.728 601.607 602.367 603.094 569.034 618.499C535.663 633.891 510.281 661.396 497.615 695.91C497.328 696.705 496.448 697.106 495.666 696.78C494.872 696.492 494.459 695.649 494.747 694.854C507.726 659.595 533.667 631.505 567.741 615.741C601.854 599.989 640.015 598.497 675.256 611.508C710.459 624.508 738.555 650.463 754.295 684.591C770.035 718.718 771.562 756.951 758.583 792.209C746.312 825.582 722.093 852.858 690.44 868.95C658.975 884.975 622.981 888.569 589.076 879.128C587.764 878.75 586.43 878.351 585.074 877.931V877.931Z" fill="#D7D7D7"/>
<path d="M1747.98 299.38C1717.35 300.589 1667.05 279.124 1607.01 281.561C1580.89 282.604 1553.84 295.379 1523.23 304.321C1491.99 313.377 1453.09 311.669 1411.84 301.208C1368.46 290.227 1324.17 276.965 1289.41 291.497C1254.56 306.078 1232.49 345.117 1204.87 375.049C1154.56 429.512 1071.92 400.588 1016.42 409.983C964.736 418.849 937.32 468.882 912.257 501.024C796.005 649.732 734.466 284.447 1048.35 378.777C1078.01 387.643 1107.9 396.686 1135.12 391.625C1160.87 386.737 1183.56 363.986 1198.45 331.339C1232.34 257.139 1249.21 151.975 1311.19 142.953C1341.25 138.652 1375.16 158.236 1408.65 159.728C1436.73 160.925 1461.46 137.651 1475.26 109.829C1491.49 77.1463 1501.68 45.4156 1520.46 31.3854C1537.79 18.4966 1563.1 25.7681 1585.72 42.5078C1645.11 86.596 1691.52 147.313 1725.84 188.392C1757.24 225.887 1775.84 251.116 1777.22 254.599C1789.4 285.038 1778.03 298.117 1747.98 299.38Z" fill="#1967D2"/>
<path fill-rule="evenodd" clip-rule="evenodd" d="M380.389 587.807C374.245 587.807 369.266 582.82 369.266 576.666C369.266 570.513 374.245 565.485 380.389 565.485C386.533 565.485 391.512 570.513 391.512 576.666C391.512 582.82 386.533 587.807 380.389 587.807ZM380.389 568.542C375.932 568.542 372.277 572.162 372.277 576.666C372.277 581.131 375.932 584.791 380.389 584.791C384.846 584.791 388.501 581.131 388.501 576.666C388.501 572.162 384.846 568.542 380.389 568.542Z" fill="#DBDBDB"/>
<path fill-rule="evenodd" clip-rule="evenodd" d="M975.636 111.855C969.492 111.855 964.473 106.828 964.473 100.714C964.473 94.5606 969.492 89.5332 975.636 89.5332C981.78 89.5332 986.759 94.5606 986.759 100.714C986.759 106.828 981.78 111.855 975.636 111.855ZM975.636 92.5899C971.139 92.5899 967.524 96.2096 967.524 100.714C967.524 105.179 971.139 108.798 975.636 108.798C980.093 108.798 983.748 105.179 983.748 100.714C983.748 96.2096 980.093 92.5899 975.636 92.5899Z" fill="#DBDBDB"/>
<path d="M1064.64 323.896C1035.53 327.316 1006.39 319.886 982.374 302.946C958.039 285.719 941.147 260.248 934.872 231.181C934.507 229.442 934.214 227.978 933.966 226.549C933.833 225.755 934.387 224.961 935.179 224.827C936.008 224.649 936.8 225.204 936.939 226.038C937.177 227.387 937.47 228.851 937.831 230.55C950.343 288.365 1005.7 327.743 1064.32 320.855C1064.91 320.786 1065.51 320.716 1066.12 320.644C1129.34 312.205 1173.89 253.882 1165.51 190.601C1161.44 159.939 1145.67 132.715 1121.16 113.93C1096.59 95.1106 1066.25 87.0126 1035.6 91.0996C1035.6 91.0996 1035.58 91.1012 1035.56 91.1043C1034.76 91.198 1034.01 90.6386 1033.91 89.7997C1033.77 88.9655 1034.37 88.2068 1035.21 88.1084C1066.62 83.9323 1097.79 92.2163 1122.97 111.49C1148.16 130.803 1164.33 158.748 1168.5 190.209C1172.67 221.67 1164.39 252.851 1145.11 278.078C1125.86 303.259 1097.92 319.459 1066.51 323.636C1065.9 323.734 1065.28 323.821 1064.64 323.896V323.896Z" fill="#D7D7D7"/>
<path d="M678.459 560.56C677.816 560.56 677.214 560.158 677.013 559.515C676.732 558.71 677.174 557.866 677.937 557.584C680.988 556.538 683.96 555.05 686.851 553.643C688.899 552.637 690.987 551.591 693.035 550.707C723.353 538.037 750.098 519.899 779.853 491.866C780.456 491.303 781.42 491.343 781.982 491.946C782.544 492.549 782.544 493.515 781.942 494.078C751.905 522.352 724.879 540.692 694.2 553.522C692.232 554.326 690.265 555.332 688.217 556.337C685.245 557.825 682.153 559.354 678.94 560.48C678.78 560.534 678.619 560.56 678.459 560.56V560.56Z" fill="#DBDBDB"/>
<path d="M538.663 578.284L538.623 575.227C540.51 575.227 541.394 573.779 542.679 571.407C543.964 569.034 545.57 566.017 549.385 566.017C553.039 566.017 555.047 568.792 556.774 571.205C558.541 573.659 559.745 575.147 561.713 575.147C561.713 575.147 561.726 575.147 561.753 575.147C563.64 575.147 564.484 573.699 565.769 571.366C567.054 568.953 568.66 565.977 572.475 565.937C576.129 565.937 578.137 568.712 579.864 571.165C581.631 573.619 582.875 575.107 584.843 575.107C586.73 575.107 587.614 573.659 588.859 571.286C590.184 568.873 591.79 565.896 595.565 565.896C595.565 565.896 595.578 565.896 595.605 565.896C599.259 565.896 601.227 568.631 602.994 571.085C604.761 573.538 605.965 575.026 607.933 575.026L607.973 578.083C607.946 578.083 607.933 578.083 607.933 578.083C604.279 578.083 602.271 575.308 600.544 572.854C598.777 570.401 597.532 568.913 595.605 568.913C595.605 568.913 595.592 568.913 595.565 568.913C593.677 568.913 592.794 570.361 591.549 572.734C590.224 575.147 588.618 578.123 584.843 578.123C581.189 578.123 579.181 575.388 577.414 572.935C575.647 570.481 574.443 568.993 572.475 568.993C570.588 568.993 569.704 570.441 568.419 572.774C567.134 575.187 565.528 578.163 561.753 578.204C561.753 578.204 561.74 578.204 561.713 578.204C558.059 578.204 556.091 575.428 554.324 572.975C552.557 570.522 551.353 569.034 549.385 569.034C547.498 569.034 546.614 570.482 545.329 572.854C544.044 575.268 542.438 578.244 538.663 578.284Z" fill="#DBDBDB"/>
<path d="M652.408 579.925C652.047 579.925 651.686 579.804 651.404 579.522L639.478 568.663C638.876 568.1 638.836 567.175 639.398 566.531C639.96 565.928 640.883 565.888 641.526 566.451L653.452 577.27C654.055 577.833 654.095 578.798 653.533 579.442C653.252 579.764 652.81 579.925 652.408 579.925V579.925Z" fill="#DBDBDB"/>
<path d="M515.467 579.615C515.106 579.615 514.744 579.494 514.463 579.253C513.861 578.69 513.78 577.724 514.343 577.081L524.02 566.382C524.582 565.739 525.546 565.699 526.149 566.262C526.791 566.825 526.831 567.79 526.269 568.393L516.591 579.132C516.31 579.454 515.909 579.615 515.467 579.615Z" fill="#DBDBDB"/>
<path d="M632.209 579.804C631.848 579.804 631.486 579.684 631.205 579.402L619.279 568.543C618.676 567.98 618.636 567.015 619.198 566.411C619.761 565.768 620.724 565.728 621.327 566.291L633.253 577.15C633.856 577.713 633.896 578.678 633.334 579.322C633.052 579.643 632.651 579.804 632.209 579.804V579.804Z" fill="#DBDBDB"/>
<path d="M495.307 579.494C494.946 579.494 494.584 579.373 494.263 579.132C493.661 578.569 493.621 577.604 494.183 576.96L503.82 566.262C504.383 565.618 505.346 565.578 505.989 566.141C506.591 566.704 506.631 567.67 506.069 568.273L496.432 579.011C496.11 579.333 495.709 579.494 495.307 579.494V579.494Z" fill="#DBDBDB"/>
<path d="M485.591 576.88C485.537 576.88 485.484 576.88 485.43 576.88L489.847 574.064C489.566 574.828 489.084 575.472 488.442 575.955L487.799 576.357C487.157 576.719 486.394 576.88 485.591 576.88ZM483.302 576.357C483.021 576.236 482.78 576.075 482.499 575.914L490.008 571.128C490.088 571.37 490.128 571.571 490.128 571.812C490.155 571.892 490.168 571.959 490.168 572.013L483.302 576.357ZM481.294 574.828C481.107 574.614 480.933 574.399 480.772 574.185L488.964 568.956C489.124 569.198 489.285 569.439 489.405 569.68L481.294 574.828ZM480.17 572.737C480.062 572.442 479.996 572.147 479.969 571.852L487.076 567.348C487.344 567.482 487.598 567.643 487.839 567.83L480.17 572.737ZM480.089 569.922C480.25 569.439 480.491 568.916 480.812 568.514L483.503 566.785C483.824 566.704 484.185 566.704 484.547 566.704C484.761 566.704 484.962 566.717 485.149 566.744L480.089 569.922Z" fill="#DBDBDB"/>
<path d="M461.939 573.742C461.135 573.742 460.453 573.099 460.453 572.254C460.413 571.41 461.095 570.726 461.898 570.726C462.862 570.699 463.746 570.672 464.549 570.645C465.379 570.645 466.102 570.632 466.717 570.605C467.52 570.565 468.243 571.249 468.283 572.093C468.283 572.938 467.641 573.622 466.798 573.622C466.182 573.648 465.459 573.675 464.629 573.702C463.826 573.702 462.943 573.716 461.979 573.742C461.979 573.742 461.965 573.742 461.939 573.742Z" fill="#DBDBDB"/>
<path d="M8.50903 695.114C10.3201 689.107 54.1962 609.15 117.446 556.446C174.211 509.229 253.238 505.651 303.92 585.364C358.195 670.736 422.747 708.899 483.437 722.252C543.387 735.417 599.048 712.484 627.829 694.534C690.255 655.805 723.956 715.907 669.316 780.621C643.786 810.648 616.736 809.095 576.404 793.372C534.203 776.901 478.578 739.228 387.903 713.943C300.451 689.656 192.143 682.152 117.962 704.488C39.0262 728.342 -7.77678 747.492 8.50903 695.114Z" fill="#F9AB00"/>
</g>
</svg>
